<!DOCTYPE svg PUBLIC "-//W3C//DTD SVG 20010904//EN" "http://www.w3.org/TR/2001/REC-SVG-20010904/DTD/svg10.dtd">
<svg version="1.0" xmlns="http://www.w3.org/2000/svg" width="1200px" height="281px" viewBox="0 0 12000 2810" preserveAspectRatio="xMidYMid meet">
<g id="layer101" fill="#494a4d" stroke="none">
 <path d="M3294 2730 c-31 -12 -36 -25 -22 -55 8 -18 16 -24 27 -19 9 4 39 9 68 12 44 3 53 1 62 -17 11 -20 -2 -41 -14 -21 -9 15 -67 12 -106 -4 -74 -31 -93 -149 -34 -214 28 -32 29 -32 125 -32 l97 0 6 147 c3 81 2 154 -3 163 -22 41 -145 65 -206 40z m120 -176 c24 -24 20 -80 -6 -98 -30 -21 -51 -20 -73 4 -21 24 -24 72 -5 94 16 21 64 20 84 0z"/>
 <path d="M7460 2732 c0 -5 3 -12 7 -16 4 -4 15 -26 23 -49 15 -39 15 -46 -3 -92 -10 -27 -23 -54 -28 -59 -5 -6 -9 -17 -9 -26 0 -8 -9 -32 -20 -53 -28 -51 -26 -57 20 -57 22 0 40 5 40 10 0 6 11 33 25 62 14 28 25 59 25 67 1 22 46 -67 55 -106 6 -30 10 -33 46 -33 46 0 48 9 20 72 -10 24 -30 71 -45 106 -77 183 -76 182 -118 182 -21 0 -38 -4 -38 -8z"/>
 <path d="M2233 2693 c-4 -10 -10 -20 -13 -23 -4 -3 -18 -23 -32 -45 -14 -22 -42 -57 -61 -78 -20 -21 -37 -42 -39 -46 -6 -16 -199 -171 -213 -171 -4 0 -41 -17 -83 -37 -144 -69 -187 -74 -657 -83 -436 -9 -493 -14 -585 -50 -168 -67 -309 -173 -387 -289 -21 -31 -40 -58 -44 -61 -17 -16 -65 -126 -90 -209 l-30 -96 3 -375 c4 -375 4 -375 30 -451 23 -66 47 -118 107 -227 19 -36 198 -212 215 -212 7 0 19 -7 26 -15 18 -22 146 -81 225 -103 79 -23 205 -36 205 -22 0 5 -22 21 -48 34 -27 13 -54 32 -61 40 -8 9 -18 16 -23 16 -14 0 -208 193 -208 206 0 6 -6 17 -14 23 -8 7 -24 30 -35 51 -11 21 -24 47 -30 57 -30 56 -53 124 -78 225 -27 111 -28 119 -28 403 0 287 1 291 27 366 58 169 164 283 328 355 l65 29 420 6 c386 6 427 8 501 27 86 23 208 74 231 98 8 8 18 14 23 14 4 0 40 26 78 58 143 116 250 289 286 462 29 142 29 140 11 140 -8 0 -19 -8 -22 -17z"/>
 <path d="M2710 2460 l0 -190 88 1 c120 1 171 22 210 89 11 19 23 51 27 71 8 41 -8 111 -30 133 -8 8 -15 19 -15 24 0 6 -23 22 -52 36 -44 22 -65 26 -140 26 l-88 0 0 -190z m205 90 c52 -48 49 -144 -5 -188 -16 -12 -49 -25 -74 -28 l-46 -7 0 128 0 128 52 -6 c31 -4 60 -14 73 -27z"/>
 <path d="M3100 2515 l0 -135 35 0 35 0 0 135 0 135 -35 0 -35 0 0 -135z"/>
 <path d="M3580 2515 l0 -135 35 0 35 0 0 135 0 135 -35 0 -35 0 0 -135z"/>
 <path d="M3772 2634 c-20 -14 -22 -23 -22 -105 0 -88 0 -89 -25 -89 -21 0 -25 -5 -25 -30 0 -25 4 -30 25 -30 21 0 25 -5 25 -28 0 -21 7 -32 25 -40 36 -16 35 -17 35 28 l0 40 41 0 c38 0 40 1 37 28 -3 23 -8 27 -41 30 l-38 3 3 67 3 67 38 3 c35 3 37 5 37 38 0 34 0 34 -48 34 -27 0 -57 -7 -70 -16z"/>
 <path d="M3988 2625 c-44 -30 -48 -40 -48 -119 0 -57 3 -65 33 -94 32 -32 34 -32 130 -32 l97 0 0 134 0 135 -88 0 c-77 0 -93 -3 -124 -24z m116 -55 c23 -8 26 -15 26 -55 0 -36 -4 -47 -25 -61 -34 -22 -69 -11 -88 28 -13 28 -14 36 -1 59 19 39 43 46 88 29z"/>
 <path d="M4280 2460 l0 -190 35 0 35 0 0 190 0 190 -35 0 -35 0 0 -190z"/>
 <path d="M4624 2631 c-68 -42 -87 -136 -39 -201 34 -47 41 -50 113 -50 l62 0 0 -55 0 -55 35 0 35 0 0 189 0 189 -88 1 c-68 0 -95 -4 -118 -18z m114 -67 c33 -23 31 -88 -3 -110 -35 -23 -73 -11 -89 28 -29 69 32 124 92 82z"/>
 <path d="M4954 2634 c-43 -21 -64 -62 -64 -127 0 -50 4 -59 35 -91 33 -34 38 -36 100 -36 53 0 69 4 86 21 26 26 49 80 49 114 0 25 0 25 -95 25 -77 0 -93 3 -89 14 8 21 45 27 88 15 32 -9 41 -8 57 7 26 23 24 31 -13 54 -40 24 -110 26 -154 4z m111 -174 c-22 -24 -58 -26 -79 -4 -9 8 -16 17 -16 20 0 2 25 4 57 4 55 0 56 0 38 -20z"/>
 <path d="M5220 2460 l0 -190 35 0 35 0 0 190 0 190 -35 0 -35 0 0 -190z"/>
 <path d="M5370 2515 l0 -135 35 0 35 0 0 135 0 135 -35 0 -35 0 0 -135z"/>
 <path d="M5611 2623 c-8 -16 -17 -35 -22 -43 -5 -8 -17 -31 -27 -50 -9 -19 -27 -51 -38 -70 -12 -19 -25 -45 -29 -57 -6 -21 -3 -23 34 -23 41 0 41 1 72 66 l31 66 29 -53 c16 -29 29 -58 29 -66 0 -9 15 -13 51 -13 l50 0 -20 28 c-11 16 -27 47 -36 70 -10 23 -21 42 -25 42 -4 0 -13 15 -19 32 -12 35 -52 98 -62 98 -3 0 -11 -12 -18 -27z"/>
 <path d="M5854 2634 c-43 -21 -64 -62 -64 -127 0 -50 4 -59 35 -91 33 -34 38 -36 100 -36 53 0 69 4 86 21 26 26 49 80 49 114 0 25 0 25 -95 25 -77 0 -93 3 -89 14 8 21 45 27 88 15 32 -9 41 -8 57 7 26 23 24 31 -13 54 -40 24 -110 26 -154 4z m111 -174 c-22 -24 -58 -26 -79 -4 -9 8 -16 17 -16 20 0 2 25 4 57 4 55 0 56 0 38 -20z"/>
 <path d="M6120 2515 l0 -135 80 0 80 0 0 36 c0 31 -2 35 -20 29 -13 -4 -31 0 -45 9 -23 15 -25 22 -25 106 l0 90 -35 0 -35 0 0 -135z"/>
 <path d="M6374 2634 c-43 -21 -64 -62 -64 -127 0 -50 3 -58 36 -91 34 -34 40 -36 100 -36 52 0 68 4 85 21 26 26 49 80 49 114 0 25 0 25 -95 25 -77 0 -93 3 -89 14 8 21 45 27 88 15 32 -9 41 -8 57 7 26 23 24 31 -13 54 -40 24 -110 26 -154 4z m111 -174 c-22 -24 -58 -26 -79 -4 -9 8 -16 17 -16 20 0 2 25 4 57 4 55 0 56 0 38 -20z"/>
 <path d="M6688 2625 c-44 -30 -48 -40 -48 -119 0 -57 3 -65 33 -94 30 -29 39 -32 95 -32 l62 0 0 -55 0 -55 35 0 35 0 0 189 0 190 -88 0 c-77 0 -93 -3 -124 -24z m116 -55 c23 -8 26 -15 26 -55 0 -36 -4 -47 -25 -61 -34 -22 -69 -11 -88 28 -13 28 -14 36 -1 59 19 39 43 46 88 29z"/>
 <path d="M7110 2459 l0 -189 35 0 35 0 0 55 0 55 68 0 c76 0 82 3 117 50 33 44 35 118 4 161 -33 47 -66 58 -168 58 l-91 -1 0 -189z m168 115 c23 -7 38 -42 33 -79 -3 -26 -37 -55 -64 -55 -58 0 -91 92 -45 124 24 17 40 19 76 10z"/>
 <path d="M7870 2460 l0 -190 30 0 c30 0 30 0 30 58 l0 57 69 -3 c64 -3 70 -2 90 24 18 23 21 40 21 135 l0 109 -30 0 -30 0 0 -79 c0 -64 -4 -83 -21 -105 -25 -32 -49 -33 -77 -3 -19 20 -22 35 -22 105 l0 82 -30 0 -30 0 0 -190z"/>
 <path d="M8233 2640 c-39 -15 -53 -60 -53 -165 l0 -95 35 0 35 0 0 90 c0 80 2 90 21 100 29 16 76 3 83 -23 3 -12 6 -55 6 -94 l0 -73 35 0 35 0 0 134 0 134 -87 0 c-49 0 -98 -4 -110 -8z"/>
 <path d="M8510 2515 l0 -135 93 0 c59 0 97 4 105 12 9 9 15 9 24 0 7 -7 38 -12 69 -12 52 0 60 3 83 31 24 29 26 37 26 135 l0 104 -35 0 -35 0 0 -83 c0 -115 -34 -160 -81 -104 -15 17 -18 39 -19 105 l0 82 -30 0 -30 0 0 -83 c0 -74 -3 -86 -23 -105 -28 -27 -39 -27 -60 -4 -13 14 -17 39 -17 105 l0 87 -35 0 -35 0 0 -135z"/>
 <path d="M9039 2632 c-59 -35 -78 -134 -38 -198 29 -48 46 -54 153 -54 l96 0 0 134 0 134 -92 0 c-66 0 -101 -5 -119 -16z m119 -68 c43 -30 15 -124 -37 -124 -42 0 -65 37 -62 98 2 38 60 53 99 26z"/>
 <path d="M9320 2515 l0 -135 99 0 100 0 25 33 c24 31 26 42 26 135 l0 102 -35 0 -35 0 0 -74 c0 -41 -4 -86 -9 -99 -13 -33 -46 -43 -76 -23 -23 15 -25 22 -25 106 l0 90 -35 0 -35 0 0 -135z"/>
 <path d="M9646 2629 c-32 -25 -33 -44 -5 -60 16 -8 28 -8 46 0 66 30 69 0 3 -35 -24 -13 -47 -29 -52 -36 -13 -21 -9 -72 8 -96 13 -18 25 -22 73 -22 43 0 62 5 74 18 22 24 22 29 -8 48 -20 13 -28 14 -40 4 -8 -7 -22 -9 -31 -6 -23 9 0 36 30 36 35 0 76 50 76 92 0 29 -6 41 -29 57 -39 28 -109 28 -145 0z"/>
 <path d="M3090 2310 c0 -23 5 -31 24 -36 41 -10 66 4 66 37 0 28 -2 29 -45 29 -43 0 -45 -1 -45 -30z"/>
 <path d="M3570 2310 c0 -23 5 -31 25 -36 38 -9 55 2 55 36 0 28 -2 30 -40 30 -38 0 -40 -2 -40 -30z"/>
 <path d="M5360 2310 c0 -23 5 -31 24 -36 41 -10 66 4 66 37 0 28 -2 29 -45 29 -43 0 -45 -1 -45 -30z"/>
 <path d="M8110 1665 l0 -505 90 0 c83 0 90 2 90 20 0 18 2 18 65 -5 84 -32 158 -32 246 -1 165 58 257 200 247 382 -6 103 -35 176 -95 241 -72 77 -137 106 -251 111 -96 5 -171 -9 -198 -35 -12 -12 -14 7 -14 141 l0 156 -90 0 -90 0 0 -505z m446 61 c39 -20 67 -50 95 -105 29 -57 29 -114 -2 -178 -44 -92 -117 -130 -221 -114 -55 9 -123 53 -132 84 -3 12 -6 72 -6 133 0 108 1 111 28 136 24 22 60 42 112 62 23 9 92 -1 126 -18z"/>
 <path d="M3090 1896 c-55 -16 -134 -51 -157 -68 -29 -23 -128 -123 -141 -143 -6 -11 -19 -36 -28 -55 -9 -19 -20 -42 -24 -50 -25 -51 -42 -160 -37 -232 7 -80 54 -225 82 -248 8 -7 15 -18 15 -24 0 -6 16 -28 35 -48 101 -106 210 -161 340 -171 103 -8 212 5 267 32 25 11 49 21 54 21 18 0 104 82 104 99 0 9 -25 43 -56 76 -55 59 -56 60 -73 40 -67 -79 -211 -115 -331 -82 -102 28 -179 103 -223 218 -24 61 -28 85 -25 139 6 108 65 214 155 279 42 30 137 61 190 61 59 0 162 -37 207 -74 43 -35 66 -45 66 -28 0 4 20 28 45 54 25 26 45 56 45 67 0 13 -20 35 -55 61 -30 22 -57 40 -61 40 -4 0 -28 10 -53 22 -39 19 -66 23 -171 25 -83 2 -140 -2 -170 -11z"/>
 <path d="M3895 1900 c-133 -42 -230 -155 -254 -296 -34 -198 68 -373 252 -432 86 -28 153 -28 247 0 68 21 82 30 145 93 60 60 73 79 90 135 49 158 6 333 -104 425 -72 61 -118 77 -236 81 -60 2 -123 -1 -140 -6z m224 -188 c55 -34 101 -115 101 -177 0 -68 -58 -162 -122 -196 -33 -18 -143 -14 -174 5 -53 36 -74 61 -94 113 -25 66 -25 85 -2 148 45 129 178 178 291 107z"/>
 <path d="M4517 1903 c-4 -3 -7 -240 -7 -525 l0 -518 90 0 90 0 0 519 c0 464 -2 520 -16 525 -21 8 -149 8 -157 -1z"/>
 <path d="M5065 1901 c-95 -25 -187 -104 -233 -201 -23 -49 -26 -67 -26 -165 0 -98 3 -116 26 -166 29 -62 106 -146 153 -168 17 -7 37 -17 45 -21 38 -18 128 -32 180 -27 135 12 253 89 315 207 28 52 30 62 30 175 l0 120 -42 72 c-44 72 -82 109 -163 153 -39 21 -60 25 -150 27 -58 1 -118 -2 -135 -6z m185 -170 c80 -31 129 -108 130 -204 0 -56 -42 -137 -90 -170 -35 -25 -50 -29 -111 -29 -88 0 -125 22 -172 103 -39 66 -38 148 1 210 35 54 52 69 106 91 54 22 75 22 136 -1z"/>
 <path d="M5687 1903 c-4 -3 -7 -172 -7 -375 l0 -368 85 0 c84 0 85 0 85 25 l0 25 50 -25 c55 -28 124 -41 164 -31 25 6 26 8 26 94 l0 88 -63 -4 c-70 -5 -112 10 -153 55 -24 26 -24 27 -24 268 0 212 -2 244 -16 249 -21 8 -139 8 -147 -1z"/>
 <path d="M6253 1903 c-10 -4 -13 -118 -13 -524 l0 -519 310 0 310 0 0 95 0 95 -220 0 -220 0 0 120 0 120 180 0 180 0 0 90 0 90 -180 0 -180 0 0 125 0 125 220 0 221 0 -3 93 -3 92 -295 2 c-162 1 -301 -1 -307 -4z"/>
 <path d="M6993 1903 c-10 -4 -13 -118 -13 -524 l0 -519 90 0 90 0 0 519 c0 464 -2 520 -16 525 -18 7 -133 7 -151 -1z"/>
 <path d="M7535 1901 c-62 -16 -185 -98 -185 -124 0 -4 -8 -16 -17 -27 -32 -36 -62 -140 -63 -212 -1 -211 141 -366 352 -385 126 -11 244 47 317 155 30 44 61 155 61 219 l0 53 -275 0 c-151 0 -275 3 -275 7 0 3 11 25 25 49 30 52 67 79 128 95 60 17 142 -1 193 -42 20 -16 41 -29 45 -29 5 0 23 17 41 37 18 20 44 48 58 61 l24 23 -36 34 c-21 18 -63 46 -95 61 -51 24 -72 28 -163 30 -58 2 -118 -1 -135 -5z m256 -488 c-10 -21 -31 -49 -46 -63 -24 -22 -35 -25 -104 -25 -72 0 -80 2 -113 30 -30 26 -46 46 -66 88 -2 4 76 7 172 7 l176 0 -19 -37z"/>
 <path d="M8972 1902 c-10 -7 -12 -118 -10 -523 l3 -514 88 -3 87 -3 0 183 c1 154 3 180 14 166 7 -10 18 -18 23 -18 5 0 25 -8 44 -17 49 -26 189 -23 247 4 50 24 112 78 112 98 0 8 4 15 9 15 5 0 17 19 25 43 14 35 16 83 14 307 l-3 265 -60 3 c-32 2 -69 1 -82 -3 l-23 -5 0 -217 c0 -133 -4 -230 -11 -254 -33 -109 -183 -141 -264 -55 -19 21 -36 38 -37 39 -1 1 -4 112 -7 247 l-6 245 -75 3 c-41 1 -81 -2 -88 -6z"/>
 <path d="M10005 1904 c-65 -16 -172 -88 -187 -126 -4 -10 -12 -18 -17 -18 -5 0 -21 -30 -37 -67 -22 -55 -28 -84 -28 -153 -2 -184 91 -315 262 -370 83 -26 176 -25 233 4 40 20 55 20 63 1 4 -12 25 -15 96 -15 l90 0 0 369 c0 419 10 381 -95 381 -73 0 -95 -6 -95 -26 0 -12 -6 -11 -32 3 -33 17 -205 29 -253 17z m184 -174 c28 -11 62 -29 76 -41 24 -22 25 -26 25 -154 0 -124 -1 -132 -23 -151 -58 -50 -97 -61 -193 -56 -43 3 -103 53 -137 115 -24 44 -28 60 -24 102 6 57 48 139 83 162 31 20 93 42 121 43 12 0 45 -9 72 -20z"/>
 <path d="M10637 1903 c-4 -3 -7 -172 -7 -375 l0 -368 90 0 90 0 0 26 c0 20 3 24 13 16 6 -5 40 -20 75 -32 125 -45 285 1 347 101 52 85 49 65 50 359 l0 275 -80 0 -80 0 -6 -230 c-6 -251 -10 -271 -65 -318 -27 -23 -44 -29 -87 -30 -67 -1 -105 15 -139 60 l-28 36 0 238 c0 207 -2 238 -16 243 -21 8 -149 8 -157 -1z"/>
 <path d="M11652 1900 c-29 -4 -61 -15 -71 -24 -10 -9 -23 -16 -30 -16 -6 0 -17 -11 -23 -25 -6 -14 -15 -25 -19 -25 -21 0 -29 -78 -29 -271 l0 -209 -52 0 -53 0 -17 -60 c-10 -32 -18 -71 -18 -85 0 -24 2 -25 70 -25 l70 0 0 -67 0 -68 78 -38 c42 -20 80 -37 85 -37 4 0 7 47 7 105 l0 105 110 0 111 0 -6 38 c-4 20 -11 58 -18 85 l-11 47 -93 0 -93 0 0 158 c0 237 8 252 140 252 l70 0 0 79 c0 63 -3 80 -16 85 -20 8 -125 6 -192 -4z"/>
 <path d="M2090 1852 c0 -11 -11 -32 -25 -48 -14 -16 -25 -32 -25 -36 0 -5 -6 -8 -14 -8 -7 0 -20 -7 -27 -17 -21 -25 -115 -63 -156 -63 l-36 0 6 -392 c6 -412 0 -506 -36 -562 -10 -14 -17 -30 -17 -36 0 -18 -66 -108 -111 -151 -62 -60 -134 -102 -226 -132 -82 -27 -85 -27 -368 -27 -281 0 -288 0 -363 26 -42 14 -101 39 -130 56 -29 16 -56 28 -58 25 -3 -3 2 -20 12 -39 19 -37 189 -208 206 -208 7 0 21 -8 32 -19 22 -19 105 -64 191 -103 47 -22 62 -23 270 -23 201 1 226 3 290 24 147 48 246 106 348 203 91 87 149 172 201 297 52 123 56 172 56 734 0 338 -3 517 -10 517 -5 0 -10 -8 -10 -18z"/>
 <path d="M1255 1058 c-52 -29 -65 -50 -65 -108 0 -59 8 -76 50 -104 48 -31 128 -16 168 32 15 20 15 122 -1 143 -31 41 -110 61 -152 37z"/>
 </g>
<g id="layer102" fill="#f47e4a" stroke="none">
 <path d="M2230 2688 c-22 -52 -138 -189 -212 -251 -77 -64 -134 -107 -143 -107 -4 0 -41 -17 -83 -37 -144 -69 -187 -74 -657 -83 -231 -5 -445 -13 -475 -18 -182 -33 -408 -182 -507 -334 -15 -23 -30 -45 -33 -48 -18 -15 -65 -125 -91 -209 l-30 -96 3 -375 c4 -375 4 -375 30 -451 23 -66 47 -118 107 -227 19 -36 198 -212 215 -212 7 0 19 -7 26 -15 18 -22 146 -81 225 -103 79 -23 205 -36 205 -22 0 5 -22 21 -48 34 -27 13 -54 32 -61 40 -8 9 -18 16 -23 16 -14 0 -200 187 -224 225 -10 17 -24 40 -31 52 -6 12 -18 35 -26 50 -36 67 -58 128 -84 235 -27 111 -28 119 -28 403 0 287 1 291 27 366 58 169 164 283 328 355 l65 29 420 6 c386 6 427 8 501 27 86 23 208 74 231 98 8 8 18 14 23 14 4 0 40 26 78 58 143 116 250 289 286 462 29 142 29 140 12 140 -9 0 -21 -10 -26 -22z"/>
 <path d="M2090 1852 c0 -11 -11 -32 -25 -48 -14 -16 -25 -32 -25 -36 0 -5 -6 -8 -14 -8 -7 0 -20 -7 -27 -17 -21 -25 -115 -63 -156 -63 l-36 0 6 -392 c6 -412 0 -506 -36 -562 -10 -14 -17 -30 -17 -36 0 -18 -66 -108 -111 -151 -62 -60 -134 -102 -226 -132 -82 -27 -85 -27 -368 -27 -281 0 -288 0 -363 26 -42 14 -101 39 -130 56 -29 16 -56 28 -58 25 -3 -3 2 -20 12 -39 19 -37 189 -208 206 -208 7 0 21 -8 32 -19 22 -19 105 -64 191 -103 47 -22 62 -23 270 -23 201 1 226 3 290 24 147 48 246 106 348 203 91 87 149 172 201 297 52 123 56 172 56 734 0 338 -3 517 -10 517 -5 0 -10 -8 -10 -18z"/>
 </g>

</svg>