<svg width="170" height="65" viewBox="0 0 170 65" version="1.1" xmlns="http://www.w3.org/2000/svg" xmlns:xlink="http://www.w3.org/1999/xlink">
<title>mvpfactory_logo</title>
<desc>Created using Figma</desc>
<g id="Canvas" transform="translate(-375 -50)">
<g id="mvpfactory_logo">
<g id="Fill 1">
<use xlink:href="#path0_fill" transform="translate(386.898 50.1356)" fill="#1B2328"/>
</g>
<g id="Fill 2">
<use xlink:href="#path1_fill" transform="translate(375 50)" fill="#1B2328"/>
</g>
<g id="Fill 3">
<use xlink:href="#path2_fill" transform="translate(400.106 50.4015)" fill="#1B2328"/>
</g>
<g id="Fill 4">
<use xlink:href="#path3_fill" transform="translate(478.592 70.494)" fill="#1B2328"/>
</g>
<g id="Fill 5">
<use xlink:href="#path4_fill" transform="translate(478.652 96.3762)" fill="#1B2328"/>
</g>
</g>
</g>
<defs>
<path id="path0_fill" fill-rule="evenodd" d="M 0 32.2129L 32.529 0L 64.4414 32.2129L 32.529 64.4258L 0 32.2129ZM 6.38281 32.2129L 32.5289 6.44247L 58.059 32.2129L 32.5289 57.9833L 6.38281 32.2129Z"/>
<path id="path1_fill" fill-rule="evenodd" d="M 0 32.2805L 31.9793 0L 63.9582 32.2805L 31.9793 64.5609L 0 32.2805ZM 6.7207 32.2804L 31.979 6.78436L 57.2372 32.2804L 31.979 57.7765L 6.7207 32.2804Z"/>
<path id="path2_fill" fill-rule="evenodd" d="M 0 32.2999L 13.5546 18.6172L 15.3322 20.4119L 3.55506 32.2999L 15.3501 44.206L 13.5726 46.0003L 0 32.2999ZM 17.8436 13.4579L 31.1759 0L 63.1741 32.2995L 31.1759 64.5985L 17.4629 50.7572L 19.9655 50.7572L 20.4469 50.1798L 31.1759 61.0099L 59.619 32.2995L 31.1759 3.58853L 19.7108 15.162L 17.8436 13.4579Z"/>
<path id="path3_fill" fill-rule="evenodd" d="M 0 23.234L 3.83644 23.234L 3.83644 5.30462L 3.90076 5.30462L 10.2836 23.234L 13.6041 23.234L 19.9874 5.30462L 20.0517 5.30462L 20.0517 23.234L 23.8877 23.234L 23.8877 0L 18.2785 0L 12.0891 18.1905L 12.0244 18.1905L 5.67392 0L 0 0L 0 23.234ZM 33.7847 23.234L 38.2653 23.234L 46.1316 0L 42.0374 0L 36.1377 18.3857L 36.0734 18.3857L 30.3032 0L 26.1123 0L 33.7847 23.234ZM 52.4493 3.31953L 58.4134 3.31953C 60.541 3.31953 62.378 4.10049 62.378 7.17574C 62.378 10.1202 60.1542 11.0315 58.3486 11.0315L 52.4493 11.0315L 52.4493 6.09176L 48.4199 6.09176L 48.4199 23.234L 52.4493 23.234L 52.4493 14.3506L 58.5744 14.3506C 65.1507 14.3833 66.4079 10.0876 66.4079 7.20755C 66.4079 4.29573 65.1507 0 58.5744 0L 48.4199 0L 48.4199 3.32041L 52.4493 3.32041L 52.4493 3.31953Z"/>
<path id="path4_fill" fill-rule="evenodd" d="M 0 7.78928L 1.31936 7.78928L 1.31936 4.41144L 4.72914 4.41144L 4.72914 3.32437L 1.31936 3.32437L 1.31936 1.33177L 5.20393 1.33177L 5.20393 0.181091L 0 0.181091L 0 7.78928ZM 11.8861 1.49167L 11.9181 1.49167L 14.103 7.78928L 15.5177 7.78928L 12.6147 0.181091L 11.2105 0.181091L 8.31836 7.78928L 9.67973 7.78928L 11.8861 1.49167ZM 25.578 2.59996C 25.4192 0.959416 24.0788 0.0106013 22.3792 0C 20.1203 0 18.7686 1.81149 18.7686 3.9852C 18.7686 6.1589 20.1203 7.9704 22.3792 7.9704C 24.2057 7.9704 25.4826 6.71326 25.5885 4.89073L 24.3007 4.89073C 24.1948 5.99944 23.5511 6.88332 22.3792 6.88332C 20.7644 6.88332 20.0888 5.44508 20.0888 3.9852C 20.0888 2.52531 20.7644 1.08663 22.3792 1.08663C 23.4771 1.08663 24.0364 1.72624 24.2582 2.59996L 25.578 2.59996ZM 29.0088 1.33177L 31.3946 1.33177L 31.3946 7.78928L 32.7144 7.78928L 32.7144 1.33177L 35.1102 1.33177L 35.1102 0.181091L 29.0088 0.181091L 29.0088 1.33177ZM 42.1297 0C 39.8713 0 38.5195 1.81149 38.5195 3.9852C 38.5195 6.1589 39.8713 7.9704 42.1297 7.9704C 44.3891 7.9704 45.7404 6.1589 45.7404 3.9852C 45.7404 1.81149 44.3891 0 42.1297 0ZM 42.1302 1.08661C 43.7454 1.08661 44.4211 2.52529 44.4211 3.98518C 44.4211 5.44506 43.7454 6.8833 42.1302 6.8833C 40.5155 6.8833 39.8398 5.44506 39.8398 3.98518C 39.8398 2.52529 40.5155 1.08661 42.1302 1.08661ZM 51.1982 1.26819L 53.3412 1.26819C 54.0273 1.26819 54.65 1.4599 54.65 2.42991C 54.65 3.22854 54.1962 3.6442 53.3622 3.6442L 51.1982 3.6442L 51.1982 1.26819ZM 49.8789 7.78928L 51.1983 7.78928L 51.1983 4.65616L 53.1403 4.65616C 54.3542 4.65616 54.6396 5.27457 54.6396 6.67084C 54.6396 7.04321 54.6396 7.45887 54.8404 7.78928L 56.2547 7.78928C 55.9694 7.48007 55.843 6.67084 55.843 5.78608C 55.843 4.58195 55.1778 4.24094 54.724 4.17689L 54.724 4.15569C 54.9669 4.07044 55.9694 3.69763 55.9694 2.23774C 55.9694 0.948359 55.1249 0.181091 53.4786 0.181091L 49.8789 0.181091L 49.8789 7.78928ZM 62.208 7.78928L 63.5274 7.78928L 63.5274 4.80546L 66.3459 0.181091L 64.8682 0.181091L 62.9046 3.59117L 60.9096 0.181091L 59.3789 0.181091L 62.208 4.80546L 62.208 7.78928Z"/>
</defs>
</svg>
