<?xml version="1.0" encoding="utf-8"?>
<!-- Generator: Adobe Illustrator 22.1.0, SVG Export Plug-In . SVG Version: 6.00 Build 0)  -->
<svg version="1.1" id="Layer_1" xmlns="http://www.w3.org/2000/svg" xmlns:xlink="http://www.w3.org/1999/xlink" x="0px" y="0px"
	 viewBox="0 0 155 82" style="enable-background:new 0 0 155 82;" xml:space="preserve">
<style type="text/css">
	.st0{fill:url(#Combined-Shape_1_);}
	.st1{fill:#FD2E58;}
	.st2{fill:#001232;}
</style>
<title>Logo v1 Copy</title>
<desc>Created with Sketch.</desc>
<g id="Colour-Palette">
	<g id="COLOUR-PALETTE---RADICAL-RHYTHM" transform="translate(-1063.000000, -180.000000)">
		<g id="Logo-v1-Copy" transform="translate(1063.000000, 180.000000)">
			<g id="Group-2">
				<g id="Group-Copy">
					<g id="logo-new">
						
							<linearGradient id="Combined-Shape_1_" gradientUnits="userSpaceOnUse" x1="-341.8976" y1="591.5626" x2="-342.4374" y2="591.8364" gradientTransform="matrix(68.5452 0 0 -33.6973 23592.1719 20005.3516)">
							<stop  offset="0" style="stop-color:#F2BC21"/>
							<stop  offset="0.65" style="stop-color:#FD2E58"/>
						</linearGradient>
						<path id="Combined-Shape" class="st0" d="M139.4,72.6c-2.9,0-5.2-2.4-5.2-5.3s2.3-5.3,5.2-5.3c2.9,0,5.2,2.4,5.2,5.3
							S142.2,72.6,139.4,72.6z M127.3,80.6c-2.5,0-4.6-2.1-4.6-4.6c0-2.6,2-4.6,4.6-4.6c2.5,0,4.6,2.1,4.6,4.6
							C131.9,78.5,129.8,80.6,127.3,80.6z M113.8,81.9c-2.2,0-3.9-1.8-3.9-4s1.7-4,3.9-4c2.2,0,3.9,1.8,3.9,4S116,81.9,113.8,81.9z
							 M103.2,78.1c-1.8,0-3.3-1.5-3.3-3.3s1.5-3.3,3.3-3.3c1.8,0,3.3,1.5,3.3,3.3S105,78.1,103.2,78.1z M94.5,71.5
							c-1.5,0-2.7-1.2-2.7-2.7s1.2-2.7,2.7-2.7c1.5,0,2.7,1.2,2.7,2.7S96,71.5,94.5,71.5z M88.5,63.7c-1.1,0-2-0.9-2-2
							c0-1.1,0.9-2,2-2s2,0.9,2,2C90.5,62.7,89.6,63.7,88.5,63.7z M149.1,60.1c-3.2,0-5.9-2.7-5.9-5.9s2.6-5.9,5.9-5.9
							s5.9,2.7,5.9,5.9S152.4,60.1,149.1,60.1z"/>
						<g id="Group-8">
							
								<ellipse id="Oval" transform="matrix(1 -1.449154e-03 1.449154e-03 1 -2.930180e-02 9.451690e-02)" class="st1" cx="65.2" cy="20.3" rx="2" ry="2"/>
							<ellipse id="Oval_1_" class="st1" cx="5.9" cy="27.8" rx="5.9" ry="5.9"/>
							<ellipse id="Oval_2_" class="st1" cx="15.1" cy="15.1" rx="5.2" ry="5.3"/>
							<ellipse id="Oval_3_" class="st1" cx="27" cy="6.3" rx="4.6" ry="4.6"/>
							<ellipse id="Oval_4_" class="st1" cx="39.6" cy="4" rx="3.9" ry="4"/>
							<ellipse id="Oval_5_" class="st1" cx="51" cy="7.1" rx="3.3" ry="3.3"/>
							<ellipse id="Oval_6_" class="st1" cx="59.7" cy="13.4" rx="2.7" ry="2.7"/>
						</g>
					</g>
					<path id="ENTERTAINMENT-TECHNO" class="st2" d="M17.6,54v-5.9h3.1v0.6h-2.4v1.8h2.3v0.6h-2.3v2.3h2.4V54H17.6z M21.8,54v-6.2
						l4.6,4.8v-4.6h0.7v6.2l-4.6-4.8V54H21.8z M29.9,48.7V54h-0.7v-5.3h-1.4v-0.6h3.5v0.6H29.9z M32,54v-5.9h3.1v0.6h-2.4v1.8H35
						v0.6h-2.3v2.3h2.4V54H32z M36.8,48.7v2.1H37c0.7,0,1.5-0.1,1.5-1.1c0-1-0.7-1.1-1.5-1.1H36.8z M36.8,51.4V54h-0.7v-5.9H37
						c1.1,0,2.2,0.3,2.2,1.6c0,0.9-0.6,1.6-1.5,1.6l1.9,2.6h-0.8L37,51.4H36.8z M41.8,48.7V54h-0.7v-5.3h-1.4v-0.6h3.5v0.6H41.8z
						 M46.7,52.3h-2.5L43.5,54h-0.7l2.7-6.2l2.7,6.2h-0.7L46.7,52.3z M46.5,51.7l-1-2.4l-1,2.4H46.5z M49.5,48.1V54h-0.7v-5.9H49.5z
						 M50.7,54v-6.2l4.6,4.8v-4.6H56v6.2l-4.6-4.8V54H50.7z M56.8,54l1.2-6.2l2.1,5l2.2-5l1.2,6.2h-0.7l-0.8-4h0l-1.9,4.2L58.2,50h0
						l-0.8,4H56.8z M64.2,54v-5.9h3.1v0.6h-2.4v1.8h2.3v0.6h-2.3v2.3h2.4V54H64.2z M68.5,54v-6.2l4.6,4.8v-4.6h0.7v6.2l-4.6-4.8V54
						H68.5z M76.5,48.7V54h-0.7v-5.3h-1.4v-0.6H78v0.6H76.5z M82.6,48.7V54H82v-5.3h-1.4v-0.6h3.5v0.6H82.6z M84.8,54v-5.9h3.1v0.6
						h-2.4v1.8h2.3v0.6h-2.3v2.3h2.4V54H84.8z M93.4,48.6v0.8c-0.5-0.5-1.1-0.8-1.8-0.8c-1.3,0-2.4,1.1-2.4,2.4s1.1,2.4,2.4,2.4
						c0.7,0,1.3-0.3,1.8-0.8v0.8c-0.5,0.4-1.1,0.6-1.8,0.6c-1.7,0-3.1-1.4-3.1-3c0-1.7,1.4-3.1,3.1-3.1C92.3,48,92.9,48.2,93.4,48.6
						z M95.3,50.5h3v-2.4h0.7V54h-0.7v-2.9h-3V54h-0.7v-5.9h0.7V50.5z M100.2,54v-6.2l4.6,4.8v-4.6h0.7v6.2l-4.6-4.8V54H100.2z
						 M109.5,48c1.7,0,3.1,1.4,3.1,3.1c0,1.7-1.4,3-3.1,3c-1.7,0-3.1-1.3-3.1-3C106.4,49.4,107.8,48,109.5,48z M109.5,48.6
						c-1.4,0-2.4,1.1-2.4,2.4c0,1.3,1.1,2.4,2.4,2.4c1.3,0,2.4-1.1,2.4-2.4C111.9,49.7,110.8,48.6,109.5,48.6z M114.1,48.1v5.3h1.6
						V54h-2.3v-5.9H114.1z M119.2,48c1.7,0,3.1,1.4,3.1,3.1c0,1.7-1.4,3-3.1,3s-3.1-1.3-3.1-3C116.1,49.4,117.5,48,119.2,48z
						 M119.2,48.6c-1.4,0-2.4,1.1-2.4,2.4c0,1.3,1.1,2.4,2.4,2.4c1.3,0,2.4-1.1,2.4-2.4C121.6,49.7,120.5,48.6,119.2,48.6z
						 M126.2,51h2.5c0,0.8-0.1,1.5-0.6,2.1c-0.5,0.6-1.4,1-2.2,1c-1.7,0-3-1.4-3-3c0-1.7,1.4-3.1,3.1-3.1c1,0,1.9,0.5,2.5,1.3
						l-0.5,0.4c-0.5-0.7-1.2-1.1-2-1.1c-1.3,0-2.4,1.1-2.4,2.5c0,0.6,0.3,1.2,0.7,1.7c0.4,0.4,1.1,0.8,1.7,0.8c1,0,2.1-0.8,2.1-1.9
						h-1.8V51z M130.3,48.1V54h-0.7v-5.9H130.3z M131.5,54v-5.9h3.1v0.6h-2.4v1.8h2.3v0.6h-2.3v2.3h2.4V54H131.5z M138.8,48.9
						l-0.5,0.3c-0.2-0.4-0.5-0.6-1-0.6c-0.5,0-1,0.4-1,0.9c0,0.5,0.5,0.7,0.9,0.9l0.4,0.2c0.8,0.3,1.4,0.7,1.4,1.7
						c0,1-0.8,1.8-1.9,1.8c-0.9,0-1.7-0.6-1.8-1.5l0.6-0.2c0.1,0.6,0.5,1.1,1.2,1.1s1.2-0.5,1.2-1.2c0-0.7-0.5-0.9-1.1-1.2L137,51
						c-0.7-0.3-1.3-0.7-1.3-1.5c0-0.9,0.8-1.5,1.7-1.5C138,48,138.5,48.3,138.8,48.9z"/>
				</g>
			</g>
			<path id="OWNZONES" class="st2" d="M24,41.8c-4.4,0-7.8-3.1-7.8-7.5s3.3-7.5,7.8-7.5s7.7,3.1,7.7,7.5S28.4,41.8,24,41.8z
				 M24,38.5c2.4,0,3.9-1.8,3.9-4.2c0-2.4-1.5-4.2-3.9-4.2s-4,1.8-4,4.2C20,36.7,21.6,38.5,24,38.5z M48.2,41.6h-4l-2.2-9.1
				l-2.2,9.1h-4l-4.1-14.5h4.2l2.2,9.7l2.5-9.7h2.9l2.5,9.7l2.2-9.7h4.2L48.2,41.6z M67,41.6h-3.6l-6.1-8.4v8.4h-3.7V27.1h3.8l5.9,8
				v-8H67V41.6z M80.4,41.6H69.1v-3l6.2-8.3h-6.2v-3.3h11.1v3L74,38.3h6.3V41.6z M89.3,41.8c-4.4,0-7.8-3.1-7.8-7.5s3.3-7.5,7.8-7.5
				s7.7,3.1,7.7,7.5S93.7,41.8,89.3,41.8z M89.3,38.5c2.4,0,3.9-1.8,3.9-4.2c0-2.4-1.5-4.2-3.9-4.2c-2.4,0-4,1.8-4,4.2
				C85.3,36.7,86.9,38.5,89.3,38.5z M112.4,41.6h-3.6l-6.1-8.4v8.4h-3.7V27.1h3.8l5.9,8v-8h3.8V41.6z M125.6,41.6H115V27.1h10.6v3.3
				h-6.9v2.3h6.7v3.3h-6.7v2.5h6.9V41.6z M133.2,41.8c-2.9,0-5-0.9-6.4-2.3l2-2.9c1,1,2.7,1.9,4.6,1.9c1.3,0,2-0.4,2-1.2
				c0-1.9-8.2-0.3-8.2-5.9c0-2.4,2-4.6,5.8-4.6c2.3,0,4.3,0.7,5.9,2l-2,2.8c-1.2-1-2.8-1.5-4.2-1.5c-1.1,0-1.6,0.4-1.6,1
				c0,1.8,8.2,0.4,8.2,5.8C139.2,39.9,137.1,41.8,133.2,41.8z"/>
		</g>
	</g>
</g>
</svg>
