<?xml version="1.0" encoding="UTF-8"?> <svg xmlns="http://www.w3.org/2000/svg" xmlns:xlink="http://www.w3.org/1999/xlink" id="Layer_1" data-name="Layer 1" viewBox="0 0 423.98 87.72"><defs><style>.cls-1{fill:none;}.cls-2{fill:#060f28;}.cls-3{clip-path:url(#clip-path);}.cls-4{fill:url(#linear-gradient);}.cls-5{clip-path:url(#clip-path-2);}.cls-6{fill:url(#linear-gradient-2);}</style><clipPath id="clip-path" transform="translate(-717.24 -340.4)"><path class="cls-1" d="M788.77,341.87a10.92,10.92,0,0,0-10,6.67,1.7,1.7,0,0,0-.09.24l-.16.43-28.71,77.43h64.33a10.91,10.91,0,0,0,10-6.62l0,0,.34-.92a.12.12,0,0,0,0-.08l2.72-7.33,3.43-9.23,6-16.11,5.19-14,11.28-30.42Z"></path></clipPath><linearGradient id="linear-gradient" x1="212.28" y1="703.11" x2="213.28" y2="703.11" gradientTransform="matrix(0, 55.19, 55.19, 0, -38004.58, -11347.47)" gradientUnits="userSpaceOnUse"><stop offset="0" stop-color="#0f6ba8"></stop><stop offset="1" stop-color="#148ee0"></stop></linearGradient><clipPath id="clip-path-2" transform="translate(-717.24 -340.4)"><path class="cls-1" d="M756.25,341.87a10.92,10.92,0,0,0-10,6.67,1.7,1.7,0,0,0-.09.24l-.16.43-28.71,77.43h52.5a10.9,10.9,0,0,0,10-6.62.13.13,0,0,0,0,0l.33-.92a.26.26,0,0,0,0-.08l2.72-7.33,3.42-9.23,6-16.11,5.2-14,11.27-30.42Z"></path></clipPath><linearGradient id="linear-gradient-2" x1="209" y1="703" x2="210" y2="703" gradientTransform="matrix(91.5, 0, 0, -91.5, -19123.75, 64368.63)" gradientUnits="userSpaceOnUse"><stop offset="0" stop-color="#54bbff"></stop><stop offset="1" stop-color="#148ee0"></stop></linearGradient></defs><title>waydev-logo</title><polygon class="cls-2" points="148.07 27.12 157.11 27.12 162.39 47.62 173.52 27.12 177.22 27.12 182.57 47.62 193.68 27.12 203.65 27.12 182.84 65.37 178.32 65.37 173.12 45.16 162.22 65.37 157.79 65.37 148.07 27.12"></polygon><g class="cls-3"><rect class="cls-4" x="758.31" y="331.99" width="86.23" height="104.53" transform="translate(-311.48 839.71) rotate(-89.18)"></rect></g><g class="cls-5"><rect class="cls-6" y="1.48" width="91.5" height="84.77"></rect></g><path class="cls-2" d="M954.86,367.71h9.4L958.92,406h-9.29l.56-4.11a20.26,20.26,0,0,1-5.72,4,15.15,15.15,0,0,1-6,1.12,14.68,14.68,0,0,1-12.09-5.59,20.16,20.16,0,0,1-4.49-13,21.73,21.73,0,0,1,2.87-10.78,21.13,21.13,0,0,1,7.71-8,19.61,19.61,0,0,1,10.13-2.87,13.55,13.55,0,0,1,6.54,1.63,13.4,13.4,0,0,1,4.94,4.74Zm-14.1,30.86a11.56,11.56,0,0,0,6-1.54,11.93,11.93,0,0,0,4.33-4.84,14.22,14.22,0,0,0,1.76-6.74,10.14,10.14,0,0,0-2.64-7.31,9.14,9.14,0,0,0-7-2.77,11.33,11.33,0,0,0-8.53,3.69,13.3,13.3,0,0,0-3.5,9.53,10,10,0,0,0,2.65,7.24,9.09,9.09,0,0,0,6.83,2.74" transform="translate(-717.24 -340.4)"></path><polygon class="cls-2" points="252.99 27.31 262.21 27.31 269.66 50 282.74 27.31 292.86 27.31 262.81 79.55 252.9 79.55 263.75 60.34 252.99 27.31"></polygon><path class="cls-2" d="M1045.71,352.94h9.39l-7.35,53h-9.29l.56-4.11a20.4,20.4,0,0,1-5.72,4,15.15,15.15,0,0,1-6,1.12,14.68,14.68,0,0,1-12.09-5.59,20.1,20.1,0,0,1-4.49-13,21.73,21.73,0,0,1,2.87-10.78,21.13,21.13,0,0,1,7.71-8,19.61,19.61,0,0,1,10.13-2.87,13.55,13.55,0,0,1,6.54,1.63,13.4,13.4,0,0,1,4.94,4.74Zm-16.13,45.63a11.55,11.55,0,0,0,6-1.54,12,12,0,0,0,4.32-4.85,14.17,14.17,0,0,0,1.75-6.74,10.17,10.17,0,0,0-2.63-7.3,9.11,9.11,0,0,0-6.94-2.77,11.28,11.28,0,0,0-8.51,3.69,13.3,13.3,0,0,0-3.5,9.53,10,10,0,0,0,2.65,7.24,9.06,9.06,0,0,0,6.82,2.74" transform="translate(-717.24 -340.4)"></path><path class="cls-2" d="M1087,394.76l8.26,4.29a19.22,19.22,0,0,1-7.37,5.77,24,24,0,0,1-10.18,2.12q-8.75,0-13.8-4.92t-5-13.08a21.69,21.69,0,0,1,6.31-15.77,20.55,20.55,0,0,1,15.24-6.45,19.24,19.24,0,0,1,9.58,2.36,16.78,16.78,0,0,1,6.63,6.85,20.25,20.25,0,0,1,2.42,9.78,24.47,24.47,0,0,1-.35,3.87h-30.51a8.79,8.79,0,0,0,2.62,6.35,9.51,9.51,0,0,0,6.83,2.36,13.86,13.86,0,0,0,9.36-3.53m2.39-12.08a9.93,9.93,0,0,0-3.52-5.32,9.72,9.72,0,0,0-5.94-1.81,10.91,10.91,0,0,0-6.22,1.86,11.53,11.53,0,0,0-4.22,5.27Z" transform="translate(-717.24 -340.4)"></path><polygon class="cls-2" points="386.31 27.31 395.51 27.31 401.49 48.58 413.76 27.31 423.98 27.31 401.79 65.56 397.24 65.56 386.31 27.31"></polygon></svg> 